<svg width="48" height="48" viewBox="0 0 48 48" fill="none" xmlns="http://www.w3.org/2000/svg">
<g filter="url(#filter0_i)">
<path fill-rule="evenodd" clip-rule="evenodd" d="M24 11.0557L40.5 27.5558V39.125C40.5 40.219 40.0654 41.2682 39.2918 42.0418C38.5182 42.8154 37.469 43.25 36.375 43.25H11.625C10.531 43.25 9.48177 42.8154 8.70818 42.0418C7.9346 41.2682 7.5 40.219 7.5 39.125V27.5558L24 11.0557V11.0557ZM37.75 8.875V18.5L32.25 13V8.875C32.25 8.51033 32.3949 8.16059 32.6527 7.90273C32.9106 7.64487 33.2603 7.5 33.625 7.5H36.375C36.7397 7.5 37.0894 7.64487 37.3473 7.90273C37.6051 8.16059 37.75 8.51033 37.75 8.875Z" fill="#C5C5C5"/>
<path fill-rule="evenodd" clip-rule="evenodd" d="M22.0558 6.12486C22.5715 5.60932 23.2708 5.3197 24 5.3197C24.7292 5.3197 25.4286 5.60932 25.9443 6.12486L44.2235 24.4014C44.4817 24.6596 44.6268 25.0097 44.6268 25.3749C44.6268 25.74 44.4817 26.0902 44.2235 26.3484C43.9653 26.6066 43.6152 26.7516 43.25 26.7516C42.8849 26.7516 42.5347 26.6066 42.2765 26.3484L24 8.06911L5.72353 26.3484C5.46534 26.6066 5.11516 26.7516 4.75003 26.7516C4.38489 26.7516 4.03472 26.6066 3.77653 26.3484C3.51834 26.0902 3.37329 25.74 3.37329 25.3749C3.37329 25.0097 3.51834 24.6596 3.77653 24.4014L22.0558 6.12486Z" fill="#C5C5C5"/>
</g>
<defs>
<filter id="filter0_i" x="3.37329" y="5.3197" width="41.2535" height="42.9303" filterUnits="userSpaceOnUse" color-interpolation-filters="sRGB">
<feFlood flood-opacity="0" result="BackgroundImageFix"/>
<feBlend mode="normal" in="SourceGraphic" in2="BackgroundImageFix" result="shape"/>
<feColorMatrix in="SourceAlpha" type="matrix" values="0 0 0 0 0 0 0 0 0 0 0 0 0 0 0 0 0 0 127 0" result="hardAlpha"/>
<feOffset dy="6"/>
<feGaussianBlur stdDeviation="2.5"/>
<feComposite in2="hardAlpha" operator="arithmetic" k2="-1" k3="1"/>
<feColorMatrix type="matrix" values="0 0 0 0 0 0 0 0 0 0 0 0 0 0 0 0 0 0 0.25 0"/>
<feBlend mode="normal" in2="shape" result="effect1_innerShadow"/>
</filter>
</defs>
</svg>
