<svg width="50" height="50" viewBox="0 0 50 50" fill="none" xmlns="http://www.w3.org/2000/svg">
<g filter="url(#filter0_i)">
<path d="M45.4072 10.8427L39.1572 4.59266C38.7177 4.15316 38.1216 3.90625 37.5 3.90625C36.8784 3.90625 36.2823 4.15316 35.8428 4.59266L17.0928 23.3427C16.6533 23.7822 16.4063 24.3783 16.4063 24.9999V31.2499C16.4063 31.8715 16.6532 32.4676 17.0927 32.9072C17.5323 33.3467 18.1284 33.5936 18.75 33.5936H25C25.6216 33.5936 26.2177 33.3467 26.6572 32.9071L45.4072 14.1571C45.8467 13.7176 46.0936 13.1215 46.0936 12.4999C46.0936 11.8783 45.8467 11.2822 45.4072 10.8427V10.8427ZM37.5 9.56434L40.4355 12.4999L38.2813 14.6542L35.3457 11.7186L37.5 9.56434ZM24.0293 28.9061H21.0938V25.9706L32.0313 15.0331L34.9668 17.9686L24.0293 28.9061ZM44.5313 25.1108V40.6249C44.5301 41.6605 44.1181 42.6534 43.3858 43.3857C42.6535 44.118 41.6606 44.53 40.625 44.5311H9.375C8.33936 44.53 7.34648 44.118 6.61418 43.3857C5.88187 42.6534 5.46994 41.6605 5.46875 40.6249V9.37489C5.46989 8.33924 5.8818 7.34633 6.61412 6.61401C7.34644 5.88169 8.33935 5.46978 9.375 5.46864H24.8891C25.5107 5.46864 26.1068 5.71557 26.5463 6.15511C26.9859 6.59465 27.2328 7.19079 27.2328 7.81239C27.2328 8.43399 26.9859 9.03013 26.5463 9.46967C26.1068 9.90921 25.5107 10.1561 24.8891 10.1561H10.1563V39.8436H39.8438V25.1108C39.8438 24.4892 40.0907 23.8931 40.5302 23.4535C40.9698 23.014 41.5659 22.7671 42.1875 22.7671C42.8091 22.7671 43.4052 23.014 43.8448 23.4535C44.2843 23.8931 44.5313 24.4892 44.5313 25.1108V25.1108Z" fill="#C5C5C5"/>
</g>
<defs>
<filter id="filter0_i" x="5.46875" y="3.90625" width="40.6249" height="45.6249" filterUnits="userSpaceOnUse" color-interpolation-filters="sRGB">
<feFlood flood-opacity="0" result="BackgroundImageFix"/>
<feBlend mode="normal" in="SourceGraphic" in2="BackgroundImageFix" result="shape"/>
<feColorMatrix in="SourceAlpha" type="matrix" values="0 0 0 0 0 0 0 0 0 0 0 0 0 0 0 0 0 0 127 0" result="hardAlpha"/>
<feOffset dy="6"/>
<feGaussianBlur stdDeviation="2.5"/>
<feComposite in2="hardAlpha" operator="arithmetic" k2="-1" k3="1"/>
<feColorMatrix type="matrix" values="0 0 0 0 0 0 0 0 0 0 0 0 0 0 0 0 0 0 0.25 0"/>
<feBlend mode="normal" in2="shape" result="effect1_innerShadow"/>
</filter>
</defs>
</svg>
