<svg width="50" height="50" viewBox="0 0 50 50" fill="none" xmlns="http://www.w3.org/2000/svg">
<g filter="url(#filter0_i)">
<circle cx="25" cy="25" r="19" stroke="#C2C2C2" stroke-width="2"/>
<path fill-rule="evenodd" clip-rule="evenodd" d="M27.5792 44.8349H24.8443H22.4205C14.0972 43.7632 7.37648 37.5749 5.51434 29.526C5.9396 30.3914 6.36485 31.1166 6.79011 31.6478C9.2717 34.8185 11.5785 32.5304 13.846 30.2815C14.5053 29.6275 15.1612 28.9769 15.8172 28.4647C19.0204 26.1911 21.9323 26.1911 24.8443 28.01C25.4561 28.2966 26.0808 28.6636 26.7129 29.0349C29.0894 30.4307 31.5712 31.8885 33.8714 29.3742C35.1644 27.9608 36.4574 25.3819 37.7759 22.7521C39.2836 19.745 40.8246 16.6714 42.4371 15.198C44.0688 18.0945 44.9997 21.4385 44.9997 24.9999C44.9997 35.1715 37.4064 43.5696 27.5792 44.8349Z" fill="#C2C2C2"/>
</g>
<defs>
<filter id="filter0_i" x="5" y="5" width="40" height="45" filterUnits="userSpaceOnUse" color-interpolation-filters="sRGB">
<feFlood flood-opacity="0" result="BackgroundImageFix"/>
<feBlend mode="normal" in="SourceGraphic" in2="BackgroundImageFix" result="shape"/>
<feColorMatrix in="SourceAlpha" type="matrix" values="0 0 0 0 0 0 0 0 0 0 0 0 0 0 0 0 0 0 127 0" result="hardAlpha"/>
<feOffset dy="6"/>
<feGaussianBlur stdDeviation="2.5"/>
<feComposite in2="hardAlpha" operator="arithmetic" k2="-1" k3="1"/>
<feColorMatrix type="matrix" values="0 0 0 0 0 0 0 0 0 0 0 0 0 0 0 0 0 0 0.25 0"/>
<feBlend mode="normal" in2="shape" result="effect1_innerShadow"/>
</filter>
</defs>
</svg>
