
<svg width="111" height="111" viewBox="0 0 111 111" fill="none" xmlns="http://www.w3.org/2000/svg">
<path d="M55.5556 10.4062C58.9504 10.4432 62.3313 10.8364 65.6474 11.5764C66.3529 11.7339 66.9915 12.1078 67.4741 12.646C67.9567 13.1841 68.2592 13.8596 68.3391 14.578L69.1254 21.6404C69.2364 22.6361 69.5796 23.5918 70.1273 24.4307C70.6751 25.2695 71.4121 25.9681 72.279 26.4702C73.146 26.9723 74.1187 27.2639 75.1189 27.3215C76.1191 27.3791 77.1189 27.2011 78.0378 26.8019L84.5174 23.9575C85.1753 23.6677 85.9069 23.5895 86.6112 23.7337C87.3155 23.8779 87.9575 24.2373 88.4486 24.7622C93.1289 29.7623 96.6141 35.7587 98.6421 42.3002C98.8548 42.9877 98.8484 43.7243 98.6238 44.4079C98.3993 45.0916 97.9676 45.6884 97.3888 46.1159L91.6445 50.3524C90.8367 50.9457 90.1799 51.7209 89.7272 52.6152C89.2745 53.5094 89.0386 54.4977 89.0386 55.5C89.0386 56.5023 89.2745 57.4906 89.7272 58.3848C90.1799 59.2791 90.8367 60.0542 91.6445 60.6476L97.3934 64.8795C97.974 65.3066 98.4072 65.904 98.6326 66.5887C98.8581 67.2733 98.8646 68.0112 98.6514 68.6997C96.6226 75.241 93.1375 81.2372 88.4579 86.2377C87.968 86.7615 87.3279 87.1206 86.6255 87.2656C85.9231 87.4105 85.1931 87.3342 84.5359 87.0471L78.0285 84.1935C77.1109 83.7911 76.1114 83.6105 75.111 83.6661C74.1105 83.7218 73.1373 84.0122 72.2699 84.5139C71.4026 85.0156 70.6655 85.7144 70.1184 86.5538C69.5713 87.3932 69.2296 88.3497 69.1208 89.3457L68.3391 96.4035C68.2603 97.1141 67.9639 97.783 67.4903 98.3187C67.0167 98.8543 66.3892 99.2305 65.6936 99.3959C58.9946 100.99 52.015 100.99 45.3159 99.3959C44.6203 99.2305 43.9928 98.8543 43.5192 98.3187C43.0457 97.783 42.7492 97.1141 42.6704 96.4035L41.8934 89.355C41.7801 88.3614 41.4353 87.4083 40.8866 86.5723C40.338 85.7363 39.6008 85.0406 38.7344 84.5413C37.868 84.042 36.8965 83.7529 35.8981 83.6973C34.8997 83.6417 33.9021 83.8212 32.9856 84.2212L26.4829 87.0702C25.8251 87.3584 25.0941 87.4353 24.3908 87.2903C23.6875 87.1453 23.0465 86.7856 22.5563 86.2609C17.8744 81.2549 14.3891 75.2521 12.3628 68.7044C12.1495 68.0158 12.1561 67.2779 12.3816 66.5933C12.607 65.9087 13.0401 65.3113 13.6208 64.8841L19.3696 60.6476C20.1783 60.0548 20.8359 59.2799 21.2892 58.3855C21.7426 57.4912 21.9788 56.5027 21.9788 55.5C21.9788 54.4973 21.7426 53.5088 21.2892 52.6144C20.8359 51.7201 20.1783 50.9451 19.3696 50.3524L13.6208 46.1251C13.041 45.6974 12.6087 45.0997 12.3841 44.4151C12.1595 43.7305 12.1537 42.993 12.3674 42.3049C14.3956 35.7634 17.8808 29.767 22.5609 24.7669C23.052 24.2419 23.6941 23.8825 24.3983 23.7383C25.1026 23.5942 25.8343 23.6724 26.4921 23.9621L32.9671 26.8065C33.8876 27.2055 34.8888 27.3831 35.8904 27.3249C36.8919 27.2667 37.8658 26.9745 38.7339 26.4716C39.602 25.9688 40.3401 25.2693 40.8888 24.4294C41.4375 23.5896 41.7816 22.6327 41.8934 21.6357L42.6796 14.578C42.759 13.8581 43.0617 13.1812 43.5453 12.642C44.0288 12.1029 44.669 11.7286 45.376 11.5718C48.6921 10.8364 52.0823 10.4479 55.5556 10.4062ZM55.5001 41.625C51.8203 41.625 48.2911 43.0868 45.689 45.6889C43.087 48.291 41.6251 51.8201 41.6251 55.5C41.6251 59.1799 43.087 62.709 45.689 65.3111C48.2911 67.9132 51.8203 69.375 55.5001 69.375C59.18 69.375 62.7092 67.9132 65.3113 65.3111C67.9133 62.709 69.3751 59.1799 69.3751 55.5C69.3751 51.8201 67.9133 48.291 65.3113 45.6889C62.7092 43.0868 59.18 41.625 55.5001 41.625Z" fill="url(#paint0_linear)"/>
<defs>
<linearGradient id="paint0_linear" x1="49.5416" y1="-43.5877" x2="135.819" y2="66.3324" gradientUnits="userSpaceOnUse">
<stop stop-color="#48FF70"/>
<stop offset="1" stop-color="#005C99"/>
</linearGradient>
</defs>
</svg>
