<svg width="57" height="57" viewBox="0 0 57 57" fill="none" xmlns="http://www.w3.org/2000/svg">
<g filter="url(#filter0_i)">
<path d="M14.25 16.625H11.875V47.5C11.875 48.7598 12.3754 49.968 13.2662 50.8588C14.157 51.7496 15.3652 52.25 16.625 52.25H40.375C41.6348 52.25 42.843 51.7496 43.7338 50.8588C44.6246 49.968 45.125 48.7598 45.125 47.5V16.625H14.25ZM23.75 45.125H19V23.75H23.75V45.125ZM38 45.125H33.25V23.75H38V45.125ZM39.4678 9.5L35.625 4.75H21.375L17.5322 9.5H7.125V14.25H49.875V9.5H39.4678Z" fill="#C5C5C5"/>
</g>
<defs>
<filter id="filter0_i" x="0" y="0" width="57" height="62" filterUnits="userSpaceOnUse" color-interpolation-filters="sRGB">
<feFlood flood-opacity="0" result="BackgroundImageFix"/>
<feBlend mode="normal" in="SourceGraphic" in2="BackgroundImageFix" result="shape"/>
<feColorMatrix in="SourceAlpha" type="matrix" values="0 0 0 0 0 0 0 0 0 0 0 0 0 0 0 0 0 0 127 0" result="hardAlpha"/>
<feOffset dy="6"/>
<feGaussianBlur stdDeviation="2.5"/>
<feComposite in2="hardAlpha" operator="arithmetic" k2="-1" k3="1"/>
<feColorMatrix type="matrix" values="0 0 0 0 0 0 0 0 0 0 0 0 0 0 0 0 0 0 0.25 0"/>
<feBlend mode="normal" in2="shape" result="effect1_innerShadow"/>
</filter>
</defs>
</svg>
