<svg width="111" height="111" viewBox="0 0 111 111" fill="none" xmlns="http://www.w3.org/2000/svg">
<path d="M92.7856 86.4759C97.7672 80.4823 101.232 73.377 102.887 65.7612C104.541 58.1453 104.338 50.243 102.292 42.7226C100.247 35.2022 96.4207 28.285 91.1367 22.5562C85.8528 16.8273 79.2668 12.4554 71.9359 9.81026C64.6049 7.16509 56.7448 6.32449 49.0203 7.35957C41.2957 8.39464 33.9342 11.2749 27.5582 15.7568C21.1823 20.2387 15.9797 26.1902 12.3904 33.1081C8.80104 40.0259 6.93069 47.7064 6.93752 55.5C6.94014 66.8296 10.9326 77.7964 18.2144 86.4759L18.1451 86.5349C18.3879 86.8263 18.6654 87.076 18.9151 87.3639C19.2273 87.7212 19.5638 88.0577 19.8864 88.4046C20.8576 89.4591 21.8566 90.4719 22.9042 91.4224C23.2233 91.7137 23.5528 91.9843 23.8754 92.2618C24.9854 93.2192 26.1266 94.128 27.3095 94.9744C27.4621 95.0784 27.6009 95.2137 27.7535 95.3212V95.2796C35.8777 100.997 45.5693 104.065 55.5035 104.065C65.4376 104.065 75.1293 100.997 83.2535 95.2796V95.3212C83.4061 95.2137 83.5414 95.0784 83.6975 94.9744C84.8769 94.1245 86.0216 93.2192 87.1316 92.2618C87.4541 91.9843 87.7837 91.7103 88.1028 91.4224C89.1504 90.4685 90.1494 89.4591 91.1206 88.4046C91.4432 88.0577 91.7762 87.7212 92.0919 87.3639C92.3381 87.076 92.6191 86.8263 92.8619 86.5314L92.7856 86.4759ZM55.5 27.75C58.5873 27.75 61.6052 28.6655 64.1721 30.3806C66.7391 32.0958 68.7398 34.5337 69.9212 37.3859C71.1026 40.2382 71.4118 43.3767 70.8095 46.4046C70.2072 49.4325 68.7205 52.2138 66.5375 54.3969C64.3545 56.5799 61.5732 58.0665 58.5453 58.6688C55.5173 59.2711 52.3788 58.962 49.5266 57.7805C46.6743 56.5991 44.2365 54.5984 42.5213 52.0315C40.8061 49.4645 39.8906 46.4466 39.8906 43.3594C39.8906 39.2195 41.5352 35.2492 44.4625 32.3219C47.3899 29.3945 51.3602 27.75 55.5 27.75V27.75ZM27.7743 86.4759C27.8345 81.9214 29.6854 77.5736 32.9266 74.3732C36.1679 71.1729 40.5388 69.3773 45.0938 69.375H65.9063C70.4612 69.3773 74.8322 71.1729 78.0734 74.3732C81.3146 77.5736 83.1656 81.9214 83.2257 86.4759C75.6182 93.3313 65.7407 97.1253 55.5 97.1253C45.2594 97.1253 35.3818 93.3313 27.7743 86.4759V86.4759Z" fill="url(#paint0_linear)"/>
<defs>
<linearGradient id="paint0_linear" x1="48.7795" y1="-51.2255" x2="140.764" y2="70.7188" gradientUnits="userSpaceOnUse">
<stop stop-color="#48FF70"/>
<stop offset="1" stop-color="#005C99"/>
</linearGradient>
</defs>
</svg>
