<svg width="107" height="107" viewBox="0 0 107 107" fill="none" xmlns="http://www.w3.org/2000/svg">
<path d="M73.538 16.0047C64.9121 16.0047 57.5415 22.1531 53.492 26.392C49.4424 22.1531 42.0882 16.0047 33.4665 16.0047C18.6058 16.0047 8.23096 26.3632 8.23096 41.1909C8.23096 57.529 21.1162 68.089 33.5817 78.3034C39.4667 83.1308 45.5575 88.1186 50.2285 93.6497C51.0145 94.5757 52.1668 95.1107 53.3767 95.1107H53.6154C54.8295 95.1107 55.9776 94.5715 56.7596 93.6497C61.4388 88.1186 67.5254 83.1267 73.4145 78.3034C85.8759 68.0932 98.7694 57.5331 98.7694 41.1909C98.7694 26.3632 88.3945 16.0047 73.538 16.0047Z" fill="black"/>
<path d="M73.538 16.0047C64.9121 16.0047 57.5415 22.1531 53.492 26.392C49.4424 22.1531 42.0882 16.0047 33.4665 16.0047C18.6058 16.0047 8.23096 26.3632 8.23096 41.1909C8.23096 57.529 21.1162 68.089 33.5817 78.3034C39.4667 83.1308 45.5575 88.1186 50.2285 93.6497C51.0145 94.5757 52.1668 95.1107 53.3767 95.1107H53.6154C54.8295 95.1107 55.9776 94.5715 56.7596 93.6497C61.4388 88.1186 67.5254 83.1267 73.4145 78.3034C85.8759 68.0932 98.7694 57.5331 98.7694 41.1909C98.7694 26.3632 88.3945 16.0047 73.538 16.0047Z" fill="url(#paint0_linear)"/>
<defs>
<linearGradient id="paint0_linear" x1="47.2633" y1="-31.3561" x2="118.835" y2="77.3288" gradientUnits="userSpaceOnUse">
<stop stop-color="#48FF70"/>
<stop offset="1" stop-color="#005C99"/>
</linearGradient>
</defs>
</svg>
