<svg width="50" height="50" viewBox="0 0 50 50" fill="none" xmlns="http://www.w3.org/2000/svg">
<g filter="url(#filter0_i)">
<path d="M25.025 4.6875C26.5541 4.70417 28.077 4.88125 29.5708 5.21458C29.8886 5.28552 30.1763 5.45396 30.3937 5.69638C30.611 5.93879 30.7473 6.24306 30.7833 6.56667L31.1375 9.74792C31.1875 10.1964 31.3421 10.6269 31.5888 11.0048C31.8355 11.3827 32.1675 11.6974 32.558 11.9235C32.9485 12.1497 33.3867 12.281 33.8372 12.307C34.2878 12.3329 34.7381 12.2528 35.152 12.0729L38.0708 10.7917C38.3671 10.6611 38.6967 10.6259 39.014 10.6909C39.3312 10.7558 39.6204 10.9177 39.8416 11.1542C41.9498 13.4064 43.5198 16.1075 44.4333 19.0542C44.5291 19.3638 44.5262 19.6956 44.425 20.0036C44.3239 20.3115 44.1295 20.5804 43.8687 20.7729L41.2812 22.6812C40.9173 22.9485 40.6215 23.2977 40.4175 23.7005C40.2136 24.1033 40.1074 24.5485 40.1074 25C40.1074 25.4515 40.2136 25.8967 40.4175 26.2995C40.6215 26.7023 40.9173 27.0515 41.2812 27.3187L43.8708 29.225C44.1323 29.4174 44.3274 29.6865 44.429 29.9949C44.5306 30.3033 44.5335 30.6357 44.4375 30.9458C43.5236 33.8923 41.9537 36.5933 39.8458 38.8458C39.6251 39.0818 39.3368 39.2435 39.0204 39.3088C38.704 39.3741 38.3752 39.3397 38.0791 39.2104L35.1479 37.925C34.7345 37.7438 34.2843 37.6624 33.8337 37.6875C33.383 37.7125 32.9446 37.8433 32.5539 38.0693C32.1632 38.2953 31.8312 38.6101 31.5848 38.9882C31.3383 39.3663 31.1844 39.7972 31.1354 40.2458L30.7833 43.425C30.7478 43.7451 30.6142 44.0464 30.4009 44.2877C30.1876 44.529 29.905 44.6984 29.5916 44.7729C26.574 45.4909 23.4301 45.4909 20.4125 44.7729C20.0991 44.6984 19.8165 44.529 19.6032 44.2877C19.3898 44.0464 19.2563 43.7451 19.2208 43.425L18.8708 40.25C18.8198 39.8025 18.6644 39.3731 18.4173 38.9965C18.1701 38.6199 17.8381 38.3066 17.4478 38.0817C17.0576 37.8567 16.62 37.7265 16.1702 37.7015C15.7205 37.6765 15.2711 37.7573 14.8583 37.9375L11.9291 39.2208C11.6328 39.3506 11.3036 39.3853 10.9867 39.32C10.6699 39.2547 10.3812 39.0926 10.1604 38.8562C8.05144 36.6013 6.48149 33.8974 5.56871 30.9479C5.47266 30.6378 5.47562 30.3054 5.57717 29.997C5.67873 29.6886 5.87384 29.4195 6.13538 29.2271L8.72496 27.3187C9.08923 27.0517 9.38546 26.7027 9.58965 26.2998C9.79384 25.8969 9.90025 25.4516 9.90025 25C9.90025 24.5484 9.79384 24.1031 9.58965 23.7002C9.38546 23.2973 9.08923 22.9483 8.72496 22.6812L6.13538 20.7771C5.87421 20.5844 5.67951 20.3152 5.57834 20.0068C5.47716 19.6984 5.47453 19.3662 5.57079 19.0563C6.48439 16.1096 8.05431 13.4086 10.1625 11.1562C10.3837 10.9198 10.6729 10.7579 10.9901 10.6929C11.3074 10.628 11.637 10.6632 11.9333 10.7938L14.85 12.075C15.2646 12.2547 15.7156 12.3347 16.1667 12.3085C16.6179 12.2823 17.0566 12.1507 17.4476 11.9242C17.8386 11.6976 18.1711 11.3826 18.4183 11.0043C18.6654 10.6259 18.8204 10.1949 18.8708 9.74583L19.225 6.56667C19.2607 6.24241 19.3971 5.93747 19.6149 5.69461C19.8327 5.45176 20.1211 5.28318 20.4395 5.2125C21.9333 4.88125 23.4604 4.70625 25.025 4.6875ZM25 18.75C23.3424 18.75 21.7526 19.4085 20.5805 20.5806C19.4084 21.7527 18.75 23.3424 18.75 25C18.75 26.6576 19.4084 28.2473 20.5805 29.4194C21.7526 30.5915 23.3424 31.25 25 31.25C26.6576 31.25 28.2473 30.5915 29.4194 29.4194C30.5915 28.2473 31.25 26.6576 31.25 25C31.25 23.3424 30.5915 21.7527 29.4194 20.5806C28.2473 19.4085 26.6576 18.75 25 18.75Z" fill="#C5C5C5"/>
</g>
<defs>
<filter id="filter0_i" x="0" y="0" width="50" height="54" filterUnits="userSpaceOnUse" color-interpolation-filters="sRGB">
<feFlood flood-opacity="0" result="BackgroundImageFix"/>
<feBlend mode="normal" in="SourceGraphic" in2="BackgroundImageFix" result="shape"/>
<feColorMatrix in="SourceAlpha" type="matrix" values="0 0 0 0 0 0 0 0 0 0 0 0 0 0 0 0 0 0 127 0" result="hardAlpha"/>
<feOffset dy="4"/>
<feGaussianBlur stdDeviation="2"/>
<feComposite in2="hardAlpha" operator="arithmetic" k2="-1" k3="1"/>
<feColorMatrix type="matrix" values="0 0 0 0 0 0 0 0 0 0 0 0 0 0 0 0 0 0 0.5 0"/>
<feBlend mode="normal" in2="shape" result="effect1_innerShadow"/>
</filter>
</defs>
</svg>
